<?xml version="1.0" encoding="UTF-8"?>
<!DOCTYPE svg PUBLIC "-//W3C//DTD SVG 1.1//EN" "http://www.w3.org/Graphics/SVG/1.1/DTD/svg11.dtd">
<svg xmlns="http://www.w3.org/2000/svg" version="1.1" width="500px" height="500px" style="shape-rendering:geometricPrecision; text-rendering:geometricPrecision; image-rendering:optimizeQuality; fill-rule:evenodd; clip-rule:evenodd" xmlns:xlink="http://www.w3.org/1999/xlink">
<g><path style="opacity:1" fill="#77dfe9" d="M 124.5,78.5 C 122.631,79.1646 120.631,79.8313 118.5,80.5C 119.376,81.2508 120.376,81.7508 121.5,82C 120.663,83.0113 120.33,84.1779 120.5,85.5C 119.596,84.791 119.263,83.791 119.5,82.5C 116.348,81.9586 113.848,82.9586 112,85.5C 110.981,84.3128 109.814,83.3128 108.5,82.5C 105.71,84.3871 103.71,86.8871 102.5,90C 96.3025,91.2286 94.4692,94.7286 97,100.5C 100.567,95.9887 104.734,95.3221 109.5,98.5C 106.433,98.1205 105.433,99.1205 106.5,101.5C 104.914,100.587 103.414,100.587 102,101.5C 101.057,104.251 100.224,106.917 99.5,109.5C 99.6633,107.143 99.4966,104.81 99,102.5C 96.5313,106.091 95.0313,110.091 94.5,114.5C 92.6543,109.298 91.6543,103.798 91.5,98C 91.464,95.3701 91.964,92.8701 93,90.5C 97.4668,87.0349 101.633,83.2016 105.5,79C 107.246,78.5291 108.913,77.8624 110.5,77C 114.889,77.6999 119.556,78.1999 124.5,78.5 Z"/></g>
<g><path style="opacity:0.998" fill="#71c8ea" d="M 124.5,78.5 C 129.244,78.0384 130.244,79.5384 127.5,83C 131.798,85.4593 134.798,88.9593 136.5,93.5C 134.72,97.7274 133.886,102.394 134,107.5C 133.667,107.833 133.333,108.167 133,108.5C 132.023,106.26 131.523,103.927 131.5,101.5C 132.222,101.918 132.722,102.584 133,103.5C 134.498,93.5061 130.331,87.5061 120.5,85.5C 120.33,84.1779 120.663,83.0113 121.5,82C 120.376,81.7508 119.376,81.2508 118.5,80.5C 120.631,79.8313 122.631,79.1646 124.5,78.5 Z"/></g>
<g><path style="opacity:0.982" fill="#7ac5eb" d="M 131.5,101.5 C 129.824,102.183 129.157,103.517 129.5,105.5C 128.442,104.4 127.608,103.066 127,101.5C 126.275,100.941 125.442,100.608 124.5,100.5C 118.549,102.608 112.549,102.942 106.5,101.5C 105.433,99.1205 106.433,98.1205 109.5,98.5C 114.72,98.6117 119.72,97.6117 124.5,95.5C 128.107,96.1123 130.44,98.1123 131.5,101.5 Z"/></g>
<g><path style="opacity:1" fill="#4ac2e5" d="M 99.5,109.5 C 99.5,111.5 99.5,113.5 99.5,115.5C 99.6641,118.187 99.4974,120.854 99,123.5C 98.6174,124.056 98.1174,124.389 97.5,124.5C 96.2097,121.358 95.2097,118.025 94.5,114.5C 95.0313,110.091 96.5313,106.091 99,102.5C 99.4966,104.81 99.6633,107.143 99.5,109.5 Z"/></g>
<g><path style="opacity:0.998" fill="#85b0ee" d="M 136.5,93.5 C 137.551,96.2066 138.218,99.04 138.5,102C 137.034,108.703 135.367,115.203 133.5,121.5C 133.664,118.813 133.497,116.146 133,113.5C 131.673,116.511 130.506,119.511 129.5,122.5C 130.107,116.897 130.107,111.23 129.5,105.5C 129.157,103.517 129.824,102.183 131.5,101.5C 131.523,103.927 132.023,106.26 133,108.5C 133.333,108.167 133.667,107.833 134,107.5C 133.886,102.394 134.72,97.7274 136.5,93.5 Z"/></g>
<g><path style="opacity:0.98" fill="#8eaaff" d="M 217.5,126.5 C 221.394,126.186 224.727,127.353 227.5,130C 226.383,131.892 224.716,132.725 222.5,132.5C 222.949,136.527 223.616,140.527 224.5,144.5C 221.604,153.218 216.437,155.218 209,150.5C 207.991,143.494 210.991,139.161 218,137.5C 218.383,134.527 217.883,131.694 216.5,129C 217.252,128.329 217.586,127.496 217.5,126.5 Z M 216.5,142.5 C 217.5,142.5 218.5,142.5 219.5,142.5C 219.631,147.709 217.297,149.375 212.5,147.5C 213.16,145.185 214.493,143.519 216.5,142.5 Z"/></g>
<g><path style="opacity:0.978" fill="#9dccf1" d="M 99.5,115.5 C 100.317,117.969 100.817,120.635 101,123.5C 102.193,125.886 103.36,128.22 104.5,130.5C 101.956,127.693 100.956,128.36 101.5,132.5C 98.5995,132.28 95.9329,132.946 93.5,134.5C 97.4454,135.491 101.445,135.824 105.5,135.5C 105.768,137.099 105.434,138.432 104.5,139.5C 104.5,138.5 104.5,137.5 104.5,136.5C 100.833,136.5 97.1667,136.5 93.5,136.5C 93.5,137.5 93.5,138.5 93.5,139.5C 92.9232,140.773 92.2565,140.773 91.5,139.5C 93.0402,136.465 92.3735,135.465 89.5,136.5C 89.8588,134.629 90.8588,133.129 92.5,132C 95.1667,131.667 97.8333,131.333 100.5,131C 98.7811,129.13 97.7811,126.963 97.5,124.5C 98.1174,124.389 98.6174,124.056 99,123.5C 99.4974,120.854 99.6641,118.187 99.5,115.5 Z M 104.5,139.5 C 100.833,139.5 97.1667,139.5 93.5,139.5C 93.5,138.5 93.5,137.5 93.5,136.5C 97.1667,136.5 100.833,136.5 104.5,136.5C 104.5,137.5 104.5,138.5 104.5,139.5 Z"/></g>
<g><path style="opacity:0.939" fill="#858cee" d="M 133.5,121.5 C 133.235,125.13 131.902,128.297 129.5,131C 136.478,129.829 140.478,132.662 141.5,139.5C 140.352,138.105 139.352,138.272 138.5,140C 135.167,140.333 131.833,140.667 128.5,141C 127.944,141.383 127.611,141.883 127.5,142.5C 121.463,142.829 115.463,142.496 109.5,141.5C 113.445,140.509 117.445,140.176 121.5,140.5C 121.5,139.5 121.5,138.5 121.5,137.5C 118.102,137.82 114.768,137.487 111.5,136.5C 114.107,135.682 116.774,135.182 119.5,135C 120.056,134.617 120.389,134.117 120.5,133.5C 125.15,131.208 128.15,127.542 129.5,122.5C 130.506,119.511 131.673,116.511 133,113.5C 133.497,116.146 133.664,118.813 133.5,121.5 Z M 136.5,136.5 C 136.5,137.5 136.5,138.5 136.5,139.5C 132.833,139.5 129.167,139.5 125.5,139.5C 125.5,138.5 125.5,137.5 125.5,136.5C 129.167,136.5 132.833,136.5 136.5,136.5 Z"/></g>
<g><path style="opacity:0.982" fill="#84b0ee" d="M 104.5,130.5 C 109.278,134.297 114.612,135.297 120.5,133.5C 120.389,134.117 120.056,134.617 119.5,135C 116.774,135.182 114.107,135.682 111.5,136.5C 114.768,137.487 118.102,137.82 121.5,137.5C 121.5,138.5 121.5,139.5 121.5,140.5C 117.445,140.176 113.445,140.509 109.5,141.5C 115.463,142.496 121.463,142.829 127.5,142.5C 135.352,142.175 143.018,142.508 150.5,143.5C 126.824,143.167 103.157,143.5 79.5,144.5C 78.3542,156.454 78.1875,168.454 79,180.5C 79.7172,181.044 80.2172,181.711 80.5,182.5C 79.5041,182.586 78.6708,182.252 78,181.5C 77.5172,182.448 77.3505,183.448 77.5,184.5C 76.5416,184.047 75.7083,183.381 75,182.5C 74.3333,169.5 74.3333,156.5 75,143.5C 75.8333,142 77,140.833 78.5,140C 81.8168,139.502 85.1501,139.335 88.5,139.5C 88.2627,138.209 88.596,137.209 89.5,136.5C 92.3735,135.465 93.0402,136.465 91.5,139.5C 92.2565,140.773 92.9232,140.773 93.5,139.5C 97.1667,139.5 100.833,139.5 104.5,139.5C 105.434,138.432 105.768,137.099 105.5,135.5C 101.445,135.824 97.4454,135.491 93.5,134.5C 95.9329,132.946 98.5995,132.28 101.5,132.5C 100.956,128.36 101.956,127.693 104.5,130.5 Z M 104.5,139.5 C 100.833,139.5 97.1667,139.5 93.5,139.5C 93.5,138.5 93.5,137.5 93.5,136.5C 97.1667,136.5 100.833,136.5 104.5,136.5C 104.5,137.5 104.5,138.5 104.5,139.5 Z M 109.5,137.5 C 110.766,138.09 112.099,138.59 113.5,139C 111.537,139.844 110.204,139.344 109.5,137.5 Z"/></g>
<g><path style="opacity:0.088" fill="#eeeffc" d="M 136.5,136.5 C 132.833,136.5 129.167,136.5 125.5,136.5C 125.5,137.5 125.5,138.5 125.5,139.5C 124.566,138.432 124.232,137.099 124.5,135.5C 128.702,135.183 132.702,135.517 136.5,136.5 Z"/></g>
<g><path style="opacity:0.934" fill="#946df0" d="M 141.5,139.5 C 144.85,139.335 148.183,139.502 151.5,140C 153.056,140.72 154.056,141.887 154.5,143.5C 153.209,143.263 152.209,143.596 151.5,144.5C 150.833,144.5 150.5,144.167 150.5,143.5C 143.018,142.508 135.352,142.175 127.5,142.5C 127.611,141.883 127.944,141.383 128.5,141C 131.833,140.667 135.167,140.333 138.5,140C 139.352,138.272 140.352,138.105 141.5,139.5 Z"/></g>
<g><path style="opacity:0.991" fill="#7ea2ff" d="M 261.5,150.5 C 261.189,151.478 260.522,152.145 259.5,152.5C 252.063,149.7 244.563,147.034 237,144.5C 236.5,144.833 236,145.167 235.5,145.5C 236.833,151.5 238.167,157.5 239.5,163.5C 238.995,164.919 237.995,165.585 236.5,165.5C 234.348,159.107 232.681,152.441 231.5,145.5C 232.437,141.717 234.771,140.217 238.5,141C 245.405,143.62 252.405,145.953 259.5,148C 260.756,148.417 261.423,149.25 261.5,150.5 Z"/></g>
<g><path style="opacity:0.079" fill="#c8faff" d="M 261.5,150.5 C 262.167,150.5 262.833,150.5 263.5,150.5C 263.703,152.638 264.703,154.305 266.5,155.5C 259.005,162.158 251.338,168.658 243.5,175C 241.949,174.26 240.283,173.427 238.5,172.5C 238.167,171.833 237.833,171.167 237.5,170.5C 238.5,170.5 239.5,170.5 240.5,170.5C 240.5,169.5 240.5,168.5 240.5,167.5C 239.5,167.5 238.5,167.5 237.5,167.5C 237.167,166.833 236.833,166.167 236.5,165.5C 237.995,165.585 238.995,164.919 239.5,163.5C 238.167,157.5 236.833,151.5 235.5,145.5C 236,145.167 236.5,144.833 237,144.5C 244.563,147.034 252.063,149.7 259.5,152.5C 260.522,152.145 261.189,151.478 261.5,150.5 Z M 241.5,148.5 C 248.107,149.305 253.773,151.971 258.5,156.5C 256.345,164.226 251.345,168.06 243.5,168C 243,167.5 242.5,167 242,166.5C 240.459,161.754 239.293,156.921 238.5,152C 239.071,150.401 240.071,149.234 241.5,148.5 Z"/></g>
<g><path style="opacity:0.994" fill="#81a3ff" d="M 238.5,172.5 C 240.283,173.427 241.949,174.26 243.5,175C 251.338,168.658 259.005,162.158 266.5,155.5C 264.703,154.305 263.703,152.638 263.5,150.5C 269.22,149.743 271.386,152.41 270,158.5C 260.848,166.074 251.515,173.408 242,180.5C 239.072,179.24 237.239,177.073 236.5,174C 237.044,173.283 237.711,172.783 238.5,172.5 Z"/></g>
<g><path style="opacity:1" fill="#96a2f1" d="M 105.5,147.5 C 107.561,148.751 107.894,150.418 106.5,152.5C 104.142,154.529 101.808,156.529 99.5,158.5C 102.124,160.622 104.624,162.955 107,165.5C 107.483,166.448 107.649,167.448 107.5,168.5C 106.127,168.657 104.793,168.49 103.5,168C 99.9334,165.055 96.6001,161.889 93.5,158.5C 97.5201,154.811 101.52,151.145 105.5,147.5 Z"/></g>
<g><path style="opacity:0.949" fill="#af83f4" d="M 122.5,148.5 C 124.308,148.491 125.975,148.991 127.5,150C 130.924,152.38 133.924,155.213 136.5,158.5C 132.507,162.324 128.34,165.991 124,169.5C 122.635,168.407 122.301,167.074 123,165.5C 125.446,163.041 127.946,160.708 130.5,158.5C 127.876,156.378 125.376,154.045 123,151.5C 122.517,150.552 122.351,149.552 122.5,148.5 Z"/></g>
<g><path style="opacity:0.988" fill="#8daaff" d="M 278.5,159.5 C 282.684,159.66 286.017,161.327 288.5,164.5C 288.176,167.329 286.843,167.996 284.5,166.5C 284.167,167.167 283.833,167.833 283.5,168.5C 285.066,174.088 285.566,179.755 285,185.5C 280.644,192.994 274.977,194.327 268,189.5C 266.566,180.687 270.233,175.687 279,174.5C 279.226,170.448 278.726,166.448 277.5,162.5C 277.685,161.416 278.018,160.416 278.5,159.5 Z M 276.5,179.5 C 280.138,178.737 281.638,180.07 281,183.5C 278.978,186.759 276.145,188.259 272.5,188C 271.493,184.176 272.826,181.343 276.5,179.5 Z"/></g>
<g><path style="opacity:0.949" fill="#9f8bf2" d="M 116.5,146.5 C 118.484,146.484 119.484,147.484 119.5,149.5C 118.619,154.255 117.452,158.922 116,163.5C 115.484,166.251 114.317,168.584 112.5,170.5C 111.119,170 110.453,169 110.5,167.5C 112.352,160.42 114.352,153.42 116.5,146.5 Z"/></g>
<g><path style="opacity:0.966" fill="#84a6ff" d="M 237.5,167.5 C 238.5,167.5 239.5,167.5 240.5,167.5C 240.5,168.5 240.5,169.5 240.5,170.5C 239.5,170.5 238.5,170.5 237.5,170.5C 236.167,169.5 236.167,168.5 237.5,167.5 Z"/></g>
<g><path style="opacity:0.995" fill="#bb90f6" d="M 125.5,181.5 C 123.147,175.855 122.147,176.189 122.5,182.5C 121.766,181.122 121.099,179.622 120.5,178C 116.789,177.175 113.122,177.341 109.5,178.5C 108.487,181.954 107.487,185.287 106.5,188.5C 106.5,186.833 106.5,185.167 106.5,183.5C 97.6506,183.826 88.9839,183.493 80.5,182.5C 88.5,182.5 96.5,182.5 104.5,182.5C 103.498,174.339 106.998,171.339 115,173.5C 122.398,171.412 125.898,174.078 125.5,181.5 Z"/></g>
<g><path style="opacity:0.952" fill="#b652f5" d="M 125.5,181.5 C 125.5,181.833 125.5,182.167 125.5,182.5C 126.952,183.302 128.618,183.802 130.5,184C 129.944,184.383 129.611,184.883 129.5,185.5C 128.5,185.5 127.5,185.5 126.5,185.5C 126.232,187.099 126.566,188.432 127.5,189.5C 127.5,189.833 127.5,190.167 127.5,190.5C 125.862,191.705 125.529,193.038 126.5,194.5C 119.5,194.5 112.5,194.5 105.5,194.5C 106.347,193.034 107.68,192.2 109.5,192C 113.486,191.501 117.486,191.334 121.5,191.5C 121.833,191.5 122.167,191.5 122.5,191.5C 124.424,191.289 124.757,190.623 123.5,189.5C 122.781,187.236 122.448,184.903 122.5,182.5C 122.147,176.189 123.147,175.855 125.5,181.5 Z"/></g>
<g><path style="opacity:0.955" fill="#d959fa" d="M 154.5,143.5 C 155.66,156.327 155.827,169.327 155,182.5C 154.241,184.063 153.074,185.063 151.5,185.5C 148.612,184.99 146.279,185.656 144.5,187.5C 144.5,188.167 144.5,188.833 144.5,189.5C 148.715,191.436 153.381,192.103 158.5,191.5C 161.858,192.527 163.525,194.86 163.5,198.5C 163.429,201.652 162.095,203.986 159.5,205.5C 158.508,205.328 157.842,205.662 157.5,206.5C 156.5,206.5 155.5,206.5 154.5,206.5C 148.5,206.5 142.5,206.5 136.5,206.5C 135.292,205.766 133.959,205.433 132.5,205.5C 121.359,204.929 110.359,204.929 99.5,205.5C 99.0825,204.778 98.4158,204.278 97.5,204C 117.671,203.832 137.671,203.332 157.5,202.5C 160.086,199.994 160.086,197.494 157.5,195C 147.172,194.5 136.839,194.334 126.5,194.5C 125.529,193.038 125.862,191.705 127.5,190.5C 131.869,190.467 136.202,190.8 140.5,191.5C 141.461,189.735 141.795,187.735 141.5,185.5C 137.5,185.5 133.5,185.5 129.5,185.5C 129.611,184.883 129.944,184.383 130.5,184C 128.618,183.802 126.952,183.302 125.5,182.5C 134.085,182.817 142.585,182.483 151,181.5C 151.5,169.171 151.667,156.838 151.5,144.5C 152.209,143.596 153.209,143.263 154.5,143.5 Z"/></g>
<g><path style="opacity:0.416" fill="#eecafc" d="M 129.5,185.5 C 133.5,185.5 137.5,185.5 141.5,185.5C 141.795,187.735 141.461,189.735 140.5,191.5C 140.5,189.833 140.5,188.167 140.5,186.5C 136.087,187.785 131.92,187.785 128,186.5C 127.517,187.448 127.351,188.448 127.5,189.5C 126.566,188.432 126.232,187.099 126.5,185.5C 127.5,185.5 128.5,185.5 129.5,185.5 Z"/></g>
<g><path style="opacity:0.012" fill="#f2f2fd" d="M 78.5,185.5 C 80.8333,185.5 83.1667,185.5 85.5,185.5C 85.5,187.5 85.5,189.5 85.5,191.5C 81.5,191.5 77.5,191.5 73.5,191.5C 73.1667,191.5 72.8333,191.5 72.5,191.5C 76.2984,190.517 80.2984,190.183 84.5,190.5C 84.5,189.167 84.5,187.833 84.5,186.5C 82.2646,186.795 80.2646,186.461 78.5,185.5 Z"/></g>
<g><path style="opacity:0.015" fill="#fae4fe" d="M 151.5,185.5 C 151.389,186.117 151.056,186.617 150.5,187C 148.527,187.495 146.527,187.662 144.5,187.5C 146.279,185.656 148.612,184.99 151.5,185.5 Z"/></g>
<g><path style="opacity:0.915" fill="#9878f1" d="M 80.5,182.5 C 88.9839,183.493 97.6506,183.826 106.5,183.5C 106.5,185.167 106.5,186.833 106.5,188.5C 106.351,189.552 106.517,190.552 107,191.5C 111.933,190.176 116.766,190.176 121.5,191.5C 117.486,191.334 113.486,191.501 109.5,192C 107.68,192.2 106.347,193.034 105.5,194.5C 99.5,194.5 93.5,194.5 87.5,194.5C 83.2153,193.792 78.882,193.292 74.5,193C 73.944,192.617 73.6107,192.117 73.5,191.5C 77.5,191.5 81.5,191.5 85.5,191.5C 85.5,189.5 85.5,187.5 85.5,185.5C 83.1667,185.5 80.8333,185.5 78.5,185.5C 77.8333,185.5 77.5,185.167 77.5,184.5C 77.3505,183.448 77.5172,182.448 78,181.5C 78.6708,182.252 79.5041,182.586 80.5,182.5 Z M 102.5,191.5 C 98.2282,191.432 93.8948,191.432 89.5,191.5C 89.5,189.833 89.5,188.167 89.5,186.5C 93.8333,186.5 98.1667,186.5 102.5,186.5C 102.5,188.167 102.5,189.833 102.5,191.5 Z"/></g>
<g><path style="opacity:0.373" fill="#d7cbf9" d="M 102.5,191.5 C 102.5,189.833 102.5,188.167 102.5,186.5C 98.1667,186.5 93.8333,186.5 89.5,186.5C 89.5,188.167 89.5,189.833 89.5,191.5C 88.5386,189.735 88.2053,187.735 88.5,185.5C 93.5,185.5 98.5,185.5 103.5,185.5C 103.795,187.735 103.461,189.735 102.5,191.5 Z M 102.5,191.5 C 98.2282,191.432 93.8948,191.432 89.5,191.5C 89.5,189.833 89.5,188.167 89.5,186.5C 93.8333,186.5 98.1667,186.5 102.5,186.5C 102.5,188.167 102.5,189.833 102.5,191.5 Z"/></g>
<g><path style="opacity:0.165" fill="#f0d7fd" d="M 123.5,189.5 C 124.757,190.623 124.424,191.289 122.5,191.5C 122.833,190.833 123.167,190.167 123.5,189.5 Z"/></g>
<g><path style="opacity:0.025" fill="#fef8ff" d="M 144.5,189.5 C 149.269,190.117 153.936,190.784 158.5,191.5C 153.381,192.103 148.715,191.436 144.5,189.5 Z"/></g>
<g><path style="opacity:0.94" fill="#9b98f2" d="M 72.5,191.5 C 72.8333,191.5 73.1667,191.5 73.5,191.5C 73.6107,192.117 73.944,192.617 74.5,193C 78.882,193.292 83.2153,193.792 87.5,194.5C 83.0105,194.613 78.5105,194.613 74,194.5C 69.9991,196.504 69.4991,199.171 72.5,202.5C 70.6253,200.922 69.2919,201.255 68.5,203.5C 65.685,199.512 66.0183,195.679 69.5,192C 70.448,191.517 71.448,191.351 72.5,191.5 Z"/></g>
<g><path style="opacity:0.015" fill="#fefffe" d="M 154.5,197.5 C 156.852,198.543 157.019,199.876 155,201.5C 151.937,200.325 151.77,198.991 154.5,197.5 Z"/></g>
<g><path style="opacity:0.008" fill="#fffbff" d="M 163.5,198.5 C 164.341,200.812 165.341,203.145 166.5,205.5C 165.5,205.5 164.5,205.5 163.5,205.5C 163.5,207.167 163.5,208.833 163.5,210.5C 162.71,209.391 162.21,208.058 162,206.5C 161.329,205.748 160.496,205.414 159.5,205.5C 162.095,203.986 163.429,201.652 163.5,198.5 Z"/></g>
<g><path style="opacity:0.913" fill="#b173f4" d="M 72.5,202.5 C 100.833,202.5 129.167,202.5 157.5,202.5C 137.671,203.332 117.671,203.832 97.5,204C 98.4158,204.278 99.0825,204.778 99.5,205.5C 90.5,205.5 81.5,205.5 72.5,205.5C 71.1667,204.833 69.8333,204.167 68.5,203.5C 69.2919,201.255 70.6253,200.922 72.5,202.5 Z"/></g>
<g><path style="opacity:0.974" fill="#a9d2ff" d="M 17.5,204.5 C 19.288,204.215 20.9547,204.548 22.5,205.5C 25.3333,212.5 28.1667,219.5 31,226.5C 34.8606,220.112 38.1939,213.446 41,206.5C 42.0113,205.663 43.1779,205.33 44.5,205.5C 43.5704,216.128 43.237,226.795 43.5,237.5C 42.5,237.5 41.5,237.5 40.5,237.5C 40.6663,230.825 40.4996,224.158 40,217.5C 37,223.5 34,229.5 31,235.5C 28.0788,230.659 25.4121,225.659 23,220.5C 22.5006,226.157 22.3339,231.824 22.5,237.5C 20.2271,238.735 18.3938,238.402 17,236.5C 16.9806,225.841 17.1473,215.175 17.5,204.5 Z"/></g>
<g><path style="opacity:0.994" fill="#94c7ff" d="M 68.5,203.5 C 69.8333,204.167 71.1667,204.833 72.5,205.5C 72.5,205.833 72.5,206.167 72.5,206.5C 72.6663,213.175 72.4996,219.842 72,226.5C 68.7745,237.69 61.9412,240.524 51.5,235C 50.4178,233.67 49.7512,232.17 49.5,230.5C 49.5,222.167 49.5,213.833 49.5,205.5C 52.1667,205.5 54.8333,205.5 57.5,205.5C 57.1755,212.687 57.5088,219.687 58.5,226.5C 61.784,227.738 63.284,226.405 63,222.5C 63.2995,216.814 63.2995,211.147 63,205.5C 64.9483,204.891 66.7816,204.224 68.5,203.5 Z"/></g>
<g><path style="opacity:0.986" fill="#9ecafe" d="M 132.5,205.5 C 132.5,206.167 132.167,206.5 131.5,206.5C 126.5,206.5 121.5,206.5 116.5,206.5C 119.714,216.934 124.048,226.934 129.5,236.5C 128.214,238.571 126.547,238.904 124.5,237.5C 123.26,234.607 121.926,231.773 120.5,229C 116.909,228.211 113.409,228.378 110,229.5C 109.474,232.272 108.641,234.938 107.5,237.5C 105.983,238.911 104.649,238.744 103.5,237C 106.714,226.978 109.38,216.812 111.5,206.5C 107.833,206.5 104.167,206.5 100.5,206.5C 100.5,216.833 100.5,227.167 100.5,237.5C 97.5,237.5 94.5,237.5 91.5,237.5C 91.5,233.5 91.5,229.5 91.5,225.5C 89.8333,225.5 88.1667,225.5 86.5,225.5C 86.22,229.287 86.22,232.953 86.5,236.5C 85.6721,237.415 84.6721,238.081 83.5,238.5C 81.2753,237.899 79.1086,237.566 77,237.5C 76.1819,227.589 76.3485,217.756 77.5,208C 76.0953,206.731 74.4286,206.231 72.5,206.5C 72.5,206.167 72.5,205.833 72.5,205.5C 81.5,205.5 90.5,205.5 99.5,205.5C 110.359,204.929 121.359,204.929 132.5,205.5 Z M 86.5,206.5 C 88.1992,206.34 89.8659,206.506 91.5,207C 92.2524,207.671 92.5858,208.504 92.5,209.5C 91.5269,211.948 91.1936,214.615 91.5,217.5C 89.8333,217.5 88.1667,217.5 86.5,217.5C 86.5,213.833 86.5,210.167 86.5,206.5 Z M 113.5,214.5 C 115.098,216.395 116.432,218.562 117.5,221C 115.866,221.494 114.199,221.66 112.5,221.5C 112.993,219.194 113.326,216.861 113.5,214.5 Z"/></g>
<g><path style="opacity:0.993" fill="#97c9ff" d="M 316.5,206.5 C 316.5,210.5 316.5,214.5 316.5,218.5C 318.735,218.795 320.735,218.461 322.5,217.5C 322.176,213.445 322.509,209.445 323.5,205.5C 330.445,202.774 333.111,205.107 331.5,212.5C 330.482,220.604 330.482,228.604 331.5,236.5C 329.314,237.221 327.147,237.887 325,238.5C 324.586,238.043 324.086,237.709 323.5,237.5C 322.509,233.555 322.176,229.555 322.5,225.5C 320.533,225.261 318.699,225.594 317,226.5C 316.501,230.152 316.335,233.818 316.5,237.5C 313.518,237.827 310.685,237.827 308,237.5C 307.5,226.839 307.333,216.172 307.5,205.5C 310.713,205.19 313.713,205.523 316.5,206.5 Z"/></g>
<g><path style="opacity:0.969" fill="#a5d0ff" d="M 405.5,204.5 C 406.497,204.47 407.164,204.97 407.5,206C 411.482,216.465 416.149,226.632 421.5,236.5C 420.214,238.571 418.547,238.904 416.5,237.5C 415.26,234.607 413.926,231.773 412.5,229C 408.909,228.211 405.409,228.378 402,229.5C 402.004,233.175 400.671,236.175 398,238.5C 397.25,237.874 396.416,237.374 395.5,237C 398.757,226.137 402.09,215.304 405.5,204.5 Z M 405.5,215.5 C 407.969,216.607 408.969,218.607 408.5,221.5C 407.127,221.657 405.793,221.49 404.5,221C 405.406,219.301 405.739,217.467 405.5,215.5 Z"/></g>
<g><path style="opacity:0.331" fill="#d0e6ff" d="M 58.5,226.5 C 57.5088,219.687 57.1755,212.687 57.5,205.5C 54.8333,205.5 52.1667,205.5 49.5,205.5C 49.5,213.833 49.5,222.167 49.5,230.5C 48.6568,228.513 47.9902,226.346 47.5,224C 48.5905,217.82 48.7572,211.653 48,205.5C 51.3936,204.544 54.8936,204.211 58.5,204.5C 58.5,211.833 58.5,219.167 58.5,226.5 Z"/></g>
<g><path style="opacity:0.97" fill="#a5d0ff" d="M 201.5,204.5 C 202.496,204.414 203.329,204.748 204,205.5C 207.884,216.434 212.717,226.934 218.5,237C 217.07,238.44 215.403,238.774 213.5,238C 211.932,235.696 210.765,233.196 210,230.5C 206.817,228.477 203.317,227.977 199.5,229C 198.108,231.724 196.942,234.557 196,237.5C 195,238.833 194,238.833 193,237.5C 195.303,226.414 198.136,215.414 201.5,204.5 Z M 202.5,214.5 C 203.864,216.22 204.864,218.22 205.5,220.5C 203.833,221.833 202.167,221.833 200.5,220.5C 201.372,218.55 202.039,216.55 202.5,214.5 Z"/></g>
<g><path style="opacity:0.986" fill="#99caff" d="M 232.5,206.5 C 239.545,208.901 242.879,213.901 242.5,221.5C 241.96,235.021 234.96,240.354 221.5,237.5C 221.5,227.167 221.5,216.833 221.5,206.5C 225.167,206.5 228.833,206.5 232.5,206.5 Z M 229.5,209.5 C 236.408,210.947 239.741,215.281 239.5,222.5C 239.696,229.123 236.696,233.457 230.5,235.5C 228.928,226.844 228.595,218.177 229.5,209.5 Z"/></g>
<g><path style="opacity:0.982" fill="#a0cdff" d="M 260.5,205.5 C 266.509,205.334 272.509,205.501 278.5,206C 279.337,207.011 279.67,208.178 279.5,209.5C 275.802,209.552 272.135,209.886 268.5,210.5C 268.5,213.167 268.5,215.833 268.5,218.5C 271.167,218.5 273.833,218.5 276.5,218.5C 276.5,219.833 276.5,221.167 276.5,222.5C 273.881,222.232 271.381,222.565 269,223.5C 268.501,228.155 268.334,232.821 268.5,237.5C 265.653,237.782 262.987,237.782 260.5,237.5C 259.192,226.772 259.192,216.106 260.5,205.5 Z"/></g>
<g><path style="opacity:0.967" fill="#a5d0ff" d="M 288.5,204.5 C 291.027,206.51 292.861,209.177 294,212.5C 297.158,220.984 300.992,229.15 305.5,237C 304.07,238.44 302.403,238.774 300.5,238C 298.765,235.363 297.432,232.53 296.5,229.5C 293.216,228.343 289.882,228.176 286.5,229C 285.338,231.816 284.171,234.65 283,237.5C 282,238.833 281,238.833 280,237.5C 282.296,226.43 285.13,215.43 288.5,204.5 Z M 289.5,214.5 C 290.864,216.22 291.864,218.22 292.5,220.5C 290.926,221.631 289.259,221.798 287.5,221C 288.397,218.913 289.064,216.746 289.5,214.5 Z"/></g>
<g><path style="opacity:0.961" fill="#aad2ff" d="M 336.5,205.5 C 340.514,205.334 344.514,205.501 348.5,206C 353.514,207.212 354.681,210.045 352,214.5C 349.437,215.741 346.937,217.074 344.5,218.5C 348.519,224.531 353.019,230.198 358,235.5C 358.483,236.448 358.649,237.448 358.5,238.5C 355.675,238.919 353.509,237.919 352,235.5C 348,230.167 344,224.833 340,219.5C 339.5,225.825 339.334,232.158 339.5,238.5C 338.5,238.5 337.5,238.5 336.5,238.5C 336.5,227.5 336.5,216.5 336.5,205.5 Z M 341.5,208.5 C 343.414,209.185 345.414,209.685 347.5,210C 348.451,210.718 348.617,211.551 348,212.5C 345.687,214.037 343.187,214.537 340.5,214C 339.156,211.856 339.49,210.023 341.5,208.5 Z"/></g>
<g><path style="opacity:0.993" fill="#9acbff" d="M 361.5,205.5 C 363.833,205.5 366.167,205.5 368.5,205.5C 367.593,216.469 367.26,227.469 367.5,238.5C 365.167,238.5 362.833,238.5 360.5,238.5C 360.944,227.504 361.278,216.504 361.5,205.5 Z"/></g>
<g><path style="opacity:0.99" fill="#99caff" d="M 428.5,206.5 C 427.441,213.798 427.274,221.131 428,228.5C 434.076,229.476 440.242,229.81 446.5,229.5C 446.833,232.167 447.167,234.833 447.5,237.5C 440.018,238.492 432.352,238.825 424.5,238.5C 424.5,227.5 424.5,216.5 424.5,205.5C 426.099,205.232 427.432,205.566 428.5,206.5 Z"/></g>
<g><path style="opacity:0.99" fill="#9ecdff" d="M 471.5,216.5 C 471.5,220.167 471.5,223.833 471.5,227.5C 471.262,231.138 469.596,233.971 466.5,236C 462.195,237.015 457.861,237.848 453.5,238.5C 452.833,238.167 452.167,237.833 451.5,237.5C 450.501,226.854 450.168,216.187 450.5,205.5C 458.142,204.102 464.642,206.102 470,211.5C 471.009,213.025 471.509,214.692 471.5,216.5 Z M 459.5,209.5 C 466.395,210.911 469.729,215.244 469.5,222.5C 469.697,229.121 466.697,233.454 460.5,235.5C 458.479,226.867 458.146,218.2 459.5,209.5 Z"/></g>
<g><path style="opacity:0.98" fill="#a3ceff" d="M 476.5,205.5 C 478.5,205.5 480.5,205.5 482.5,205.5C 482.667,216.172 482.5,226.839 482,237.5C 479.936,238.591 477.769,238.758 475.5,238C 474.919,237.107 474.585,236.107 474.5,235C 475.154,225.143 475.82,215.31 476.5,205.5 Z"/></g>
<g><path style="opacity:0.927" fill="#abd2ff" d="M 132.5,205.5 C 133.959,205.433 135.292,205.766 136.5,206.5C 138.435,214.805 141.269,222.805 145,230.5C 148.975,223.416 152.475,216.083 155.5,208.5C 155.137,207.817 154.804,207.15 154.5,206.5C 155.5,206.5 156.5,206.5 157.5,206.5C 157.5,213.833 157.5,221.167 157.5,228.5C 157.5,231.5 157.5,234.5 157.5,237.5C 156.5,237.5 155.5,237.5 154.5,237.5C 154.666,231.824 154.499,226.157 154,220.5C 150.922,226.991 147.588,233.325 144,239.5C 140.818,233.797 138.152,227.797 136,221.5C 135.667,226.833 135.333,232.167 135,237.5C 134.107,238.711 133.274,238.711 132.5,237.5C 131.678,227.143 131.345,216.81 131.5,206.5C 132.167,206.5 132.5,206.167 132.5,205.5 Z M 136.5,206.5 C 142.5,206.5 148.5,206.5 154.5,206.5C 154.804,207.15 155.137,207.817 155.5,208.5C 152.475,216.083 148.975,223.416 145,230.5C 141.269,222.805 138.435,214.805 136.5,206.5 Z"/></g>
<g><path style="opacity:0.922" fill="#abd2ff" d="M 166.5,205.5 C 169.15,213.94 172.317,222.274 176,230.5C 180.137,222.561 183.971,214.561 187.5,206.5C 188.49,212.31 188.823,218.31 188.5,224.5C 188.666,228.846 188.499,233.179 188,237.5C 187.333,238.833 186.667,238.833 186,237.5C 185.667,231.833 185.333,226.167 185,220.5C 181.922,226.991 178.588,233.325 175,239.5C 171.541,233.573 168.875,227.24 167,220.5C 166.667,226.167 166.333,231.833 166,237.5C 164.284,238.552 163.284,237.886 163,235.5C 162.227,227.118 162.394,218.785 163.5,210.5C 163.5,208.833 163.5,207.167 163.5,205.5C 164.5,205.5 165.5,205.5 166.5,205.5 Z"/></g>
<g><path style="opacity:0.283" fill="#deeeff" d="M 86.5,206.5 C 86.5,210.167 86.5,213.833 86.5,217.5C 88.1667,217.5 89.8333,217.5 91.5,217.5C 91.1936,214.615 91.5269,211.948 92.5,209.5C 92.5,212.5 92.5,215.5 92.5,218.5C 90.1667,218.5 87.8333,218.5 85.5,218.5C 85.1832,214.298 85.5166,210.298 86.5,206.5 Z"/></g>
<g><path style="opacity:0.015" fill="#eff7ff" d="M 316.5,206.5 C 317.482,209.962 317.815,213.629 317.5,217.5C 319.167,217.5 320.833,217.5 322.5,217.5C 320.735,218.461 318.735,218.795 316.5,218.5C 316.5,214.5 316.5,210.5 316.5,206.5 Z"/></g>
<g><path style="opacity:0.782" fill="#abd3ff" d="M 370.5,205.5 C 378.5,205.5 386.5,205.5 394.5,205.5C 394.657,206.873 394.49,208.207 394,209.5C 387.973,217.36 382.14,225.36 376.5,233.5C 382.463,234.496 388.463,234.829 394.5,234.5C 394.5,235.5 394.5,236.5 394.5,237.5C 386.472,237.831 378.472,237.498 370.5,236.5C 376.962,227.738 383.295,218.904 389.5,210C 389.333,209.5 389.167,209 389,208.5C 382.945,208.73 376.779,208.73 370.5,208.5C 370.5,207.5 370.5,206.5 370.5,205.5 Z"/></g>
<g><path style="opacity:0.059" fill="#eaf4ff" d="M 187.5,206.5 C 187.56,205.957 187.893,205.624 188.5,205.5C 189.817,211.988 189.817,218.322 188.5,224.5C 188.823,218.31 188.49,212.31 187.5,206.5 Z"/></g>
<g><path style="opacity:0.469" fill="#c8e3ff" d="M 232.5,206.5 C 228.833,206.5 225.167,206.5 221.5,206.5C 221.5,216.833 221.5,227.167 221.5,237.5C 220.506,227.013 220.172,216.346 220.5,205.5C 224.702,205.183 228.702,205.517 232.5,206.5 Z"/></g>
<g><path style="opacity:0.004" fill="#f6faff" d="M 471.5,216.5 C 472.29,217.609 472.79,218.942 473,220.5C 473.333,219.5 473.667,218.5 474,217.5C 474.667,220.5 474.667,223.5 474,226.5C 473.667,226.167 473.333,225.833 473,225.5C 472.722,226.416 472.222,227.082 471.5,227.5C 471.5,223.833 471.5,220.167 471.5,216.5 Z"/></g>
<g><path style="opacity:0.064" fill="#f0f7ff" d="M 159.5,205.5 C 158.863,213.266 158.196,220.933 157.5,228.5C 157.5,221.167 157.5,213.833 157.5,206.5C 157.842,205.662 158.508,205.328 159.5,205.5 Z"/></g>
<g><path style="opacity:0.791" fill="#bddcff" d="M 428.5,206.5 C 428.473,213.682 428.806,221.015 429.5,228.5C 436.211,228.579 442.711,228.579 449,228.5C 449.32,231.72 448.82,234.72 447.5,237.5C 447.167,234.833 446.833,232.167 446.5,229.5C 440.242,229.81 434.076,229.476 428,228.5C 427.274,221.131 427.441,213.798 428.5,206.5 Z"/></g>
<g><path style="opacity:0.004" fill="#fefffe" d="M 422.5,233.5 C 423.525,233.897 423.692,234.563 423,235.5C 422.536,234.906 422.369,234.239 422.5,233.5 Z"/></g>
</svg>
